<svg preserveAspectRatio="none" width="100%" height="100%" overflow="visible" style="display: block;" viewBox="0 0 19 19" fill="none" xmlns="http://www.w3.org/2000/svg">
<path id="Icon" d="M2.91833 17.5017V13.335M2.91833 5.00167V0.835M0.835 2.91833H5.00167M0.835 15.4183H5.00167M10.0017 1.66833L8.55652 5.42572C8.32151 6.03674 8.204 6.34226 8.02128 6.59924C7.85933 6.827 7.66033 7.02599 7.43257 7.18794C7.17559 7.37067 6.87008 7.48818 6.25905 7.72319L2.50167 9.16833L6.25905 10.6135C6.87008 10.8485 7.17559 10.966 7.43257 11.1487C7.66033 11.3107 7.85933 11.5097 8.02128 11.7374C8.204 11.9944 8.32151 12.2999 8.55652 12.9109L10.0017 16.6683L11.4468 12.9109C11.6818 12.2999 11.7993 11.9944 11.9821 11.7374C12.144 11.5097 12.343 11.3107 12.5708 11.1487C12.8277 10.966 13.1333 10.8485 13.7443 10.6135L17.5017 9.16833L13.7443 7.72318C13.1333 7.48818 12.8277 7.37067 12.5708 7.18794C12.343 7.02599 12.144 6.827 11.9821 6.59924C11.7993 6.34226 11.6818 6.03674 11.4468 5.42572L10.0017 1.66833Z" stroke="var(--stroke-0, #717680)" stroke-width="1.67" stroke-linecap="round" stroke-linejoin="round"/>
</svg>
