<svg preserveAspectRatio="none" width="100%" height="100%" overflow="visible" style="display: block;" viewBox="0 0 15 4" fill="none" xmlns="http://www.w3.org/2000/svg">
<g id="Icon">
<path d="M7.50167 2.50167C7.9619 2.50167 8.335 2.12857 8.335 1.66833C8.335 1.2081 7.9619 0.835 7.50167 0.835C7.04143 0.835 6.66833 1.2081 6.66833 1.66833C6.66833 2.12857 7.04143 2.50167 7.50167 2.50167Z" stroke="var(--stroke-0, #A4A7AE)" stroke-width="1.67" stroke-linecap="round" stroke-linejoin="round"/>
<path d="M13.335 2.50167C13.7952 2.50167 14.1683 2.12857 14.1683 1.66833C14.1683 1.2081 13.7952 0.835 13.335 0.835C12.8748 0.835 12.5017 1.2081 12.5017 1.66833C12.5017 2.12857 12.8748 2.50167 13.335 2.50167Z" stroke="var(--stroke-0, #A4A7AE)" stroke-width="1.67" stroke-linecap="round" stroke-linejoin="round"/>
<path d="M1.66833 2.50167C2.12857 2.50167 2.50167 2.12857 2.50167 1.66833C2.50167 1.2081 2.12857 0.835 1.66833 0.835C1.2081 0.835 0.835 1.2081 0.835 1.66833C0.835 2.12857 1.2081 2.50167 1.66833 2.50167Z" stroke="var(--stroke-0, #A4A7AE)" stroke-width="1.67" stroke-linecap="round" stroke-linejoin="round"/>
</g>
</svg>
