<svg preserveAspectRatio="none" width="100%" height="100%" overflow="visible" style="display: block;" viewBox="0 0 17 14" fill="none" xmlns="http://www.w3.org/2000/svg">
<path id="Icon" d="M15.835 6.66833L5.835 6.66833M15.835 1.66833L5.835 1.66833M15.835 11.6683L5.835 11.6683M2.50167 6.66833C2.50167 7.12857 2.12857 7.50167 1.66833 7.50167C1.2081 7.50167 0.835 7.12857 0.835 6.66833C0.835 6.2081 1.2081 5.835 1.66833 5.835C2.12857 5.835 2.50167 6.2081 2.50167 6.66833ZM2.50167 1.66833C2.50167 2.12857 2.12857 2.50167 1.66833 2.50167C1.2081 2.50167 0.835 2.12857 0.835 1.66833C0.835 1.2081 1.2081 0.835 1.66833 0.835C2.12857 0.835 2.50167 1.2081 2.50167 1.66833ZM2.50167 11.6683C2.50167 12.1286 2.12857 12.5017 1.66833 12.5017C1.2081 12.5017 0.835 12.1286 0.835 11.6683C0.835 11.2081 1.2081 10.835 1.66833 10.835C2.12857 10.835 2.50167 11.2081 2.50167 11.6683Z" stroke="var(--stroke-0, #A4A7AE)" stroke-width="1.67" stroke-linecap="round" stroke-linejoin="round"/>
</svg>
